# xmcd CD database file
#
# Track frame offsets:
#	183
#	62318
#	91080
#	138665
#	186273
#	218168
#
# Disc length: 3398 seconds
#
# Revision: 0
# Processed by: cddbd v1.5.1PL0 Copyright (c) Steve Scherf et al.
# Submitted via: CDex 1.51
#
DISCID=4e0d4406
DTITLE=Maria-Joao Pires - Mozart Klavierkonzerte Nr. 13&26
DYEAR=1900
DGENRE=Classical
TTITLE0=ピアノ協奏曲第26番　アレグロ
TTITLE1=ピアノ協奏曲第26番　ラルゲット
TTITLE2=ピアノ協奏曲第26番　アレグレット
TTITLE3=ピアノ協奏曲第13番　アレグロ
TTITLE4=ピアノ協奏曲第13番　アンダンテ
TTITLE5=ピアノ協奏曲第13番　アレグロ
EXTD=
EXTT0=
EXTT1=
EXTT2=
EXTT3=
EXTT4=
EXTT5=
PLAYORDER=
